<?xml version="1.0" encoding="utf-8"?>
<svg width="634" height="560" viewBox="0 8.442 535.508 543.116" fill="none" xmlns="http://www.w3.org/2000/svg">
  <g clip-path="url(#clip0_36_922)">
    <mask id="mask0_36_922" style="mask-type:luminance" maskUnits="userSpaceOnUse" x="-286" y="-90" width="1109" height="740">
      <path d="M823 -90H-286V649.333H823V-90Z" fill="white"/>
    </mask>
    <g mask="url(#mask0_36_922)">
      <path style="mix-blend-mode:color-dodge" opacity="0.3" d="M268.5 693.087C496.826 693.087 681.92 507.993 681.92 279.667C681.92 51.3409 496.826 -133.754 268.5 -133.754C40.1742 -133.754 -144.92 51.3409 -144.92 279.667C-144.92 507.993 40.1742 693.087 268.5 693.087Z" fill="url(#paint0_radial_36_922)"/>
    </g>
    <g opacity="0.22">
      <path d="M365.412 376.933C419.131 376.933 462.679 333.386 462.679 279.667C462.679 225.948 419.131 182.4 365.412 182.4C311.693 182.4 268.145 225.948 268.145 279.667C268.145 333.386 311.693 376.933 365.412 376.933Z" stroke="#313131" stroke-width="0.44" stroke-linecap="round" stroke-linejoin="round"/>
      <path d="M362.1 351.767C415.819 351.767 459.366 308.219 459.366 254.5C459.366 200.781 415.819 157.233 362.1 157.233C308.381 157.233 264.833 200.781 264.833 254.5C264.833 308.219 308.381 351.767 362.1 351.767Z" stroke="#313131" stroke-width="0.44" stroke-linecap="round" stroke-linejoin="round"/>
      <path d="M446.579 255.047C459.856 202.995 428.423 150.035 376.371 136.757C324.319 123.48 271.359 154.913 258.081 206.965C244.804 259.017 276.237 311.977 328.289 325.255C380.341 338.532 433.301 307.099 446.579 255.047Z" stroke="#313131" stroke-width="0.44" stroke-linecap="round" stroke-linejoin="round"/>
      <path d="M336.918 308.161C390.637 308.161 434.185 264.613 434.185 210.894C434.185 157.175 390.637 113.627 336.918 113.627C283.199 113.627 239.651 157.175 239.651 210.894C239.651 264.613 283.199 308.161 336.918 308.161Z" stroke="#313131" stroke-width="0.44" stroke-linecap="round" stroke-linejoin="round"/>
      <path d="M385.564 264.221C423.549 226.236 423.549 164.651 385.564 126.666C347.579 88.6805 285.993 88.6805 248.008 126.666C210.023 164.651 210.023 226.236 248.008 264.221C285.993 302.206 347.579 302.206 385.564 264.221Z" stroke="#313131" stroke-width="0.44" stroke-linecap="round" stroke-linejoin="round"/>
      <path d="M293.312 282.979C347.031 282.979 390.579 239.431 390.579 185.712C390.579 131.993 347.031 88.4456 293.312 88.4456C239.593 88.4456 196.045 131.993 196.045 185.712C196.045 239.431 239.593 282.979 293.312 282.979Z" stroke="#313131" stroke-width="0.44" stroke-linecap="round" stroke-linejoin="round"/>
      <path d="M268.145 279.667C321.864 279.667 365.412 236.119 365.412 182.4C365.412 128.681 321.864 85.1334 268.145 85.1334C214.426 85.1334 170.879 128.681 170.879 182.4C170.879 236.119 214.426 279.667 268.145 279.667Z" stroke="#313131" stroke-width="0.44" stroke-linecap="round" stroke-linejoin="round"/>
      <path d="M242.963 282.979C296.682 282.979 340.23 239.431 340.23 185.712C340.23 131.993 296.682 88.4456 242.963 88.4456C189.245 88.4456 145.697 131.993 145.697 185.712C145.697 239.431 189.245 282.979 242.963 282.979Z" stroke="#313131" stroke-width="0.44" stroke-linecap="round" stroke-linejoin="round"/>
      <path d="M315.028 213.736C325.15 160.979 290.587 110.006 237.83 99.8853C185.073 89.7641 134.1 124.327 123.979 177.084C113.858 229.841 148.421 280.813 201.178 290.935C253.935 301.056 304.907 266.493 315.028 213.736Z" stroke="#313131" stroke-width="0.44" stroke-linecap="round" stroke-linejoin="round"/>
      <path d="M199.358 308.161C253.077 308.161 296.624 264.613 296.624 210.894C296.624 157.175 253.077 113.627 199.358 113.627C145.639 113.627 102.091 157.175 102.091 210.894C102.091 264.613 145.639 308.161 199.358 308.161Z" stroke="#313131" stroke-width="0.44" stroke-linecap="round" stroke-linejoin="round"/>
      <path d="M185.167 328.305C238.881 327.602 281.855 283.488 281.152 229.774C280.449 176.059 236.335 133.085 182.62 133.788C128.906 134.492 85.9321 178.606 86.6352 232.32C87.3384 286.034 131.452 329.008 185.167 328.305Z" stroke="#313131" stroke-width="0.44" stroke-linecap="round" stroke-linejoin="round"/>
      <path d="M174.191 351.767C227.91 351.767 271.457 308.219 271.457 254.5C271.457 200.781 227.91 157.233 174.191 157.233C120.472 157.233 76.9241 200.781 76.9241 254.5C76.9241 308.219 120.472 351.767 174.191 351.767Z" stroke="#313131" stroke-width="0.44" stroke-linecap="round" stroke-linejoin="round"/>
      <path d="M170.879 376.933C224.597 376.933 268.145 333.386 268.145 279.667C268.145 225.948 224.597 182.4 170.879 182.4C117.16 182.4 73.6118 225.948 73.6118 279.667C73.6118 333.386 117.16 376.933 170.879 376.933Z" stroke="#313131" stroke-width="0.44" stroke-linecap="round" stroke-linejoin="round"/>
      <path d="M174.191 402.115C227.91 402.115 271.457 358.567 271.457 304.848C271.457 251.129 227.91 207.582 174.191 207.582C120.472 207.582 76.9241 251.129 76.9241 304.848C76.9241 358.567 120.472 402.115 174.191 402.115Z" stroke="#313131" stroke-width="0.44" stroke-linecap="round" stroke-linejoin="round"/>
      <path d="M194.763 424.981C248.145 418.975 286.55 370.831 280.543 317.449C274.537 264.067 226.393 225.661 173.011 231.668C119.629 237.674 81.2233 285.818 87.23 339.2C93.2366 392.582 141.381 430.988 194.763 424.981Z" stroke="#313131" stroke-width="0.44" stroke-linecap="round" stroke-linejoin="round"/>
      <path d="M199.358 445.721C253.077 445.721 296.624 402.173 296.624 348.454C296.624 294.735 253.077 251.188 199.358 251.188C145.639 251.188 102.091 294.735 102.091 348.454C102.091 402.173 145.639 445.721 199.358 445.721Z" stroke="#313131" stroke-width="0.44" stroke-linecap="round" stroke-linejoin="round"/>
      <path d="M288.294 432.677C326.279 394.692 326.279 333.106 288.294 295.121C250.309 257.136 188.723 257.136 150.738 295.121C112.753 333.106 112.753 394.692 150.738 432.677C188.723 470.662 250.309 470.662 288.294 432.677Z" stroke="#313131" stroke-width="0.44" stroke-linecap="round" stroke-linejoin="round"/>
      <path d="M242.963 470.888C296.682 470.888 340.23 427.34 340.23 373.621C340.23 319.902 296.682 276.354 242.963 276.354C189.245 276.354 145.697 319.902 145.697 373.621C145.697 427.34 189.245 470.888 242.963 470.888Z" stroke="#313131" stroke-width="0.44" stroke-linecap="round" stroke-linejoin="round"/>
      <path d="M268.145 474.2C321.864 474.2 365.412 430.652 365.412 376.933C365.412 323.214 321.864 279.667 268.145 279.667C214.426 279.667 170.879 323.214 170.879 376.933C170.879 430.652 214.426 474.2 268.145 474.2Z" stroke="#313131" stroke-width="0.44" stroke-linecap="round" stroke-linejoin="round"/>
      <path d="M293.312 470.888C347.031 470.888 390.579 427.34 390.579 373.621C390.579 319.902 347.031 276.354 293.312 276.354C239.593 276.354 196.045 319.902 196.045 373.621C196.045 427.34 239.593 470.888 293.312 470.888Z" stroke="#313131" stroke-width="0.44" stroke-linecap="round" stroke-linejoin="round"/>
      <path d="M385.55 432.687C423.535 394.702 423.535 333.116 385.55 295.131C347.565 257.146 285.98 257.146 247.994 295.131C210.009 333.116 210.009 394.702 247.994 432.687C285.98 470.672 347.565 470.672 385.55 432.687Z" stroke="#313131" stroke-width="0.44" stroke-linecap="round" stroke-linejoin="round"/>
      <path d="M336.918 445.721C390.637 445.721 434.185 402.173 434.185 348.454C434.185 294.735 390.637 251.188 336.918 251.188C283.199 251.188 239.651 294.735 239.651 348.454C239.651 402.173 283.199 445.721 336.918 445.721Z" stroke="#313131" stroke-width="0.44" stroke-linecap="round" stroke-linejoin="round"/>
      <path d="M421.146 397.085C459.131 359.1 459.131 297.514 421.146 259.529C383.161 221.544 321.575 221.544 283.59 259.529C245.605 297.514 245.605 359.1 283.59 397.085C321.575 435.07 383.161 435.07 421.146 397.085Z" stroke="#313131" stroke-width="0.44" stroke-linecap="round" stroke-linejoin="round"/>
      <path d="M362.1 402.115C415.819 402.115 459.366 358.567 459.366 304.848C459.366 251.129 415.819 207.582 362.1 207.582C308.381 207.582 264.833 251.129 264.833 304.848C264.833 358.567 308.381 402.115 362.1 402.115Z" stroke="#313131" stroke-width="0.44" stroke-linecap="round" stroke-linejoin="round"/>
    </g>
    <path d="M60.53 226.887L68.9793 229.072L68.7147 230.095L60.2654 227.91L60.53 226.887Z" fill="#313131"/>
    <path d="M65.376 349.055L68.174 345.827L68.1537 345.762L64.0183 344.693L63.6485 343.505L68.6306 344.828L71.9814 340.911L72.3513 342.099L69.6185 345.306L69.6387 345.371L73.709 346.461L74.0788 347.649L69.0764 346.26L65.7459 350.243L65.376 349.055Z" fill="#313131"/>
    <path d="M60.8258 333.636L69.2834 331.483L69.5441 332.508L61.0865 334.66L60.8258 333.636Z" fill="#313131"/>
    <path d="M59.2777 327.242L67.7978 325.352L68.0267 326.383L59.5066 328.274L59.2777 327.242Z" fill="#313131"/>
    <path d="M124.837 439.09L125.712 434.91L125.662 434.863L121.529 435.94L120.628 435.082L125.624 433.815L126.646 428.762L127.547 429.62L126.72 433.752L126.769 433.799L130.856 432.77L131.757 433.628L126.711 434.849L125.738 439.949L124.837 439.09Z" fill="#313131"/>
    <path d="M113.338 427.821L119.68 421.825L120.406 422.593L114.064 428.589L113.338 427.821Z" fill="#313131"/>
    <path d="M220.465 488.869L219.195 484.79L219.129 484.773L216.042 487.725L214.837 487.414L218.586 483.876L217.021 478.964L218.225 479.276L219.512 483.288L219.578 483.305L222.648 480.419L223.853 480.73L220.038 484.251L221.669 489.18L220.465 488.869Z" fill="#313131"/>
    <path d="M334.363 483.959L331.719 475.642L332.727 475.322L335.37 483.639L334.363 483.959Z" fill="#313131"/>
    <path d="M328.377 485.878L325.284 482.933L325.218 482.95L323.957 487.031L322.753 487.345L324.307 482.43L320.55 478.9L321.754 478.586L324.83 481.465L324.896 481.448L326.174 477.433L327.378 477.119L325.758 482.051L329.581 485.564L328.377 485.878Z" fill="#313131"/>
    <path d="M432.267 418.515L425.065 415.545L424.997 415.621L428.742 422.452L428.003 423.277L423.639 415.068L424.366 414.256L433.006 417.69L432.267 418.515Z" fill="#313131"/>
    <path d="M421.557 430.148L415.362 424.001L416.106 423.25L422.301 429.398L421.557 430.148Z" fill="#313131"/>
    <path d="M416.857 434.777L410.856 428.44L411.623 427.714L417.624 434.051L416.857 434.777Z" fill="#313131"/>
    <path d="M412.032 439.246L406.23 432.727L407.02 432.024L412.822 438.543L412.032 439.246Z" fill="#313131"/>
    <path d="M479.071 321.259L471.334 322.169L471.311 322.268L477.907 326.413L477.663 327.494L469.856 322.447L470.096 321.382L479.315 320.178L479.071 321.259Z" fill="#313131"/>
    <path d="M475.345 336.686L466.943 334.327L467.228 333.31L475.631 335.668L475.345 336.686Z" fill="#313131"/>
    <path d="M473.499 343.01L465.173 340.393L465.49 339.385L473.816 342.002L473.499 343.01Z" fill="#313131"/>
    <path d="M472.702 213.577L466.386 218.137L466.415 218.235L474.194 218.646L474.507 219.709L465.23 219.099L464.922 218.052L472.389 212.514L472.702 213.577Z" fill="#313131"/>
    <path d="M476.964 228.883L468.476 230.911L468.23 229.883L476.718 227.855L476.964 228.883Z" fill="#313131"/>
    <path d="M414.787 122.544L411.486 129.6L411.559 129.672L418.556 126.248L419.347 127.024L410.944 131.003L410.166 130.238L413.997 121.767L414.787 122.544Z" fill="#313131"/>
    <path d="M313.795 69.948L311.917 78.4707L310.885 78.2432L312.763 69.7205L313.795 69.948Z" fill="#313131"/>
    <path d="M319.748 71.2302L320.297 79.0009L320.396 79.028L324.843 72.6317L325.911 72.9255L320.507 80.4903L319.455 80.201L318.68 70.9364L319.748 71.2302Z" fill="#313131"/>
    <path d="M203.891 75.1386L206.485 83.4715L205.476 83.7856L202.882 75.4527L203.891 75.1386Z" fill="#313131"/>
    <path d="M210.244 73.2408L212.576 81.6507L211.558 81.9331L209.225 73.5233L210.244 73.2408Z" fill="#313131"/>
    <path d="M216.575 71.5647L218.648 80.0423L217.621 80.2933L215.549 71.8158L216.575 71.5647Z" fill="#313131"/>
    <path d="M112.543 132.4L118.863 138.419L118.134 139.184L111.814 133.165L112.543 132.4Z" fill="#313131"/>
    <path d="M117.163 127.66L123.293 133.872L122.541 134.614L116.411 128.402L117.163 127.66Z" fill="#313131"/>
    <path d="M268.5 392.74C330.949 392.74 381.574 342.116 381.574 279.667C381.574 217.218 330.949 166.593 268.5 166.593C206.051 166.593 155.427 217.218 155.427 279.667C155.427 342.116 206.051 392.74 268.5 392.74Z" stroke="#313131" stroke-width="0.52" stroke-linecap="round" stroke-linejoin="round"/>
    <path d="M268.5 506.08C393.545 506.08 494.914 404.711 494.914 279.667C494.914 154.622 393.545 53.2532 268.5 53.2532C143.455 53.2532 42.0867 154.622 42.0867 279.667C42.0867 404.711 143.455 506.08 268.5 506.08Z" stroke="#313131" stroke-width="0.5" stroke-linecap="round" stroke-linejoin="round"/>
    <path d="M268.5 548.326C416.876 548.326 537.159 428.043 537.159 279.667C537.159 131.291 416.876 11.0078 268.5 11.0078C120.124 11.0078 -0.158936 131.291 -0.158936 279.667C-0.158936 428.043 120.124 548.326 268.5 548.326Z" stroke="#313131" stroke-width="0.5" stroke-linecap="round" stroke-linejoin="round"/>
    <path d="M268.5 541.76C413.25 541.76 530.594 424.417 530.594 279.667C530.594 134.916 413.25 17.573 268.5 17.573C123.75 17.573 6.40625 134.916 6.40625 279.667C6.40625 424.417 123.75 541.76 268.5 541.76Z" stroke="#313131" stroke-width="0.5" stroke-linecap="round" stroke-linejoin="round"/>
    <path d="M107.843 119.557L82.8977 94.6117M60.3333 120.414L88.3244 141.899M26.2057 179.724L58.8103 193.224M49.3172 221.333L15.2339 212.195M8.59473 245.835L43.58 250.434M8.69824 314.253L43.6835 309.654M15.441 347.878L49.5242 338.74M26.5014 380.32L59.106 366.819M60.8064 439.525L88.7976 418.04M83.4448 465.269L108.39 440.324M109.248 487.848L130.733 459.857M168.557 521.976L182.057 489.371M201.028 532.948L210.167 498.864M234.668 539.587L239.267 504.602M303.086 539.483L298.487 504.498M336.711 532.741L327.573 498.657M355.653 489.076L369.153 521.68M428.359 487.39L406.874 459.399M454.102 464.751L429.157 439.806M476.681 438.949L448.69 417.464M478.205 366.139L510.809 379.639M521.781 347.153L487.698 338.015M528.42 313.513L493.435 308.915M528.317 245.096L493.331 249.694M521.574 211.471L487.49 220.609M510.513 179.029L477.909 192.529M476.208 119.823L448.217 141.308M453.57 94.0794L428.625 119.024M406.282 99.5061L427.767 71.5149M368.458 37.3873L354.958 69.9919M335.986 26.4156L326.848 60.4988M302.347 19.7764L297.748 54.7616M233.929 19.8799L238.527 54.8651M200.304 26.6226L209.442 60.7058M167.862 37.683L181.362 70.2876M130.141 99.9792L108.656 71.9881" stroke="#313131" stroke-width="0.5" stroke-linecap="round" stroke-linejoin="round"/>
    <g opacity="0.68">
      <path d="M268.5 11.0078V548.341" stroke="#313131" stroke-width="0.25" stroke-linecap="round" stroke-linejoin="round"/>
      <path d="M134.163 46.9985L402.837 512.335" stroke="#313131" stroke-width="0.25" stroke-linecap="round" stroke-linejoin="round"/>
      <path d="M35.8318 145.33L501.168 414.004" stroke="#313131" stroke-width="0.25" stroke-linecap="round" stroke-linejoin="round"/>
      <path d="M-0.158936 279.667H537.159" stroke="#313131" stroke-width="0.25" stroke-linecap="round" stroke-linejoin="round"/>
      <path d="M35.8318 414.004L501.168 145.33" stroke="#313131" stroke-width="0.25" stroke-linecap="round" stroke-linejoin="round"/>
      <path d="M134.163 512.335L402.837 46.9985" stroke="#313131" stroke-width="0.25" stroke-linecap="round" stroke-linejoin="round"/>
    </g>
    <path d="M268.5 279.652L283.553 253.598L268.515 166.593L253.462 253.568L268.5 279.652Z" stroke="#313131" stroke-width="0.5" stroke-linecap="round" stroke-linejoin="round"/>
    <path d="M268.5 279.652V166.623L283.553 253.598L268.5 279.652Z" fill="#313131"/>
    <path d="M268.5 279.637L283.553 305.706L268.515 392.696L253.462 305.736L268.5 279.637Z" stroke="#313131" stroke-width="0.5" stroke-linecap="round" stroke-linejoin="round"/>
    <path d="M268.5 279.637V392.666L283.553 305.706L268.5 279.637Z" fill="#313131"/>
    <path d="M268.5 279.637L294.554 294.69L381.559 279.652L294.598 264.599L268.5 279.637Z" stroke="#313131" stroke-width="0.5" stroke-linecap="round" stroke-linejoin="round"/>
    <path d="M268.5 279.652H381.529L294.554 294.69L268.5 279.652Z" fill="#313131"/>
    <path d="M268.515 279.637L242.461 294.69L155.456 279.652L242.416 264.599L268.515 279.637Z" stroke="#313131" stroke-width="0.5" stroke-linecap="round" stroke-linejoin="round"/>
    <path d="M268.515 279.652H155.486L242.461 294.69L268.515 279.652Z" fill="#313131"/>
    <path d="M268.5 279.652L253.462 253.568L216.629 227.869L242.417 264.599L268.5 279.652Z" stroke="#313131" stroke-width="0.5" stroke-linecap="round" stroke-linejoin="round"/>
    <path d="M268.5 279.652L253.462 253.568L216.629 227.869L268.5 279.652Z" fill="#313131"/>
    <path d="M268.5 279.667L253.462 305.75L216.629 331.45L242.417 294.705L268.5 279.667Z" stroke="#313131" stroke-width="0.5" stroke-linecap="round" stroke-linejoin="round"/>
    <path d="M268.5 279.667L253.462 305.75L216.629 331.45L268.5 279.667Z" fill="#313131"/>
    <path d="M268.751 279.652L283.789 253.568L320.623 227.869L294.835 264.599L268.751 279.652Z" stroke="#313131" stroke-width="0.5" stroke-linecap="round" stroke-linejoin="round"/>
    <path d="M268.751 279.652L283.789 253.568L320.623 227.869L268.751 279.652Z" fill="#313131"/>
    <path d="M268.751 279.667L283.789 305.75L320.623 331.45L294.835 294.705L268.751 279.667Z" stroke="#313131" stroke-width="0.5" stroke-linecap="round" stroke-linejoin="round"/>
    <path d="M268.751 279.667L283.789 305.75L320.623 331.45L268.751 279.667Z" fill="#313131"/>
    <g filter="url(#filter0_d_36_922)">
      <path d="M105.226 256.688C104.708 256.644 104.235 256.392 103.791 256.141C103.348 255.875 102.948 255.55 102.549 255.21C101.766 254.529 101.085 253.746 100.479 252.903C99.8729 252.045 99.3553 251.128 98.9561 250.108C98.5717 249.088 98.3203 247.979 98.3351 246.781C98.3647 245.598 98.7195 244.327 99.4588 243.292C100.169 242.242 101.159 241.473 102.18 240.926C104.235 239.831 106.394 239.462 108.479 239.284C112.663 238.989 116.7 239.55 120.633 240.423C124.552 241.31 128.367 242.537 132.034 244.179C128.041 243.839 124.123 243.306 120.234 242.907C116.345 242.523 112.471 242.212 108.745 242.478C107.813 242.537 106.911 242.67 106.039 242.848C105.167 243.025 104.338 243.277 103.584 243.632C102.83 243.972 102.209 244.43 101.751 244.977C101.278 245.524 100.997 246.204 100.864 246.988C100.627 248.57 101.1 250.433 101.854 252.134C102.239 252.992 102.697 253.834 103.229 254.633C103.496 255.032 103.791 255.417 104.117 255.771C104.442 256.126 104.782 256.481 105.24 256.688H105.226Z" fill="#313131"/>
      <path d="M113.417 221.023C112.915 221.023 112.456 221.186 111.998 221.363C111.554 221.54 111.126 221.762 110.697 221.999C109.869 222.487 109.085 223.034 108.36 223.655C106.941 224.867 105.699 226.331 105.226 227.854C105.004 228.608 104.96 229.348 105.137 230.057C105.314 230.752 105.669 231.433 106.202 232.068C106.719 232.704 107.355 233.296 108.065 233.843C108.774 234.39 109.529 234.908 110.342 235.366C113.58 237.229 117.203 238.649 120.87 239.994C124.537 241.34 128.293 242.567 132.034 244.016C128.027 243.883 124.064 243.321 120.145 242.404C116.242 241.473 112.353 240.216 108.715 238.116C106.926 237.037 105.137 235.765 103.762 233.887C103.082 232.956 102.535 231.817 102.357 230.56C102.15 229.318 102.387 228.017 102.875 226.938C103.377 225.858 104.087 224.956 104.886 224.217C105.684 223.463 106.556 222.856 107.473 222.354C108.39 221.851 109.351 221.452 110.357 221.185C110.859 221.052 111.362 220.949 111.88 220.89C112.382 220.86 112.93 220.831 113.403 221.023H113.417Z" fill="#313131"/>
      <path d="M156.432 171.843C158.384 169.861 161.09 168.634 163.929 168.486C166.753 168.323 169.74 169.255 172.017 171.221C173.156 172.197 174.117 173.41 174.797 174.8C175.477 176.175 175.891 177.713 175.965 179.28C176.039 180.848 175.788 182.445 175.226 183.938C174.664 185.431 173.762 186.792 172.638 187.93C171.514 189.054 170.154 189.971 168.661 190.548C167.182 191.124 165.585 191.39 164.003 191.331C162.435 191.272 160.883 190.873 159.508 190.193C158.118 189.513 156.905 188.551 155.914 187.428C153.933 185.165 152.987 182.193 153.12 179.354C153.253 176.515 154.465 173.809 156.432 171.828V171.843ZM156.432 171.843C154.465 173.809 153.401 176.633 153.563 179.354C153.637 180.715 154.007 182.045 154.613 183.228C155.219 184.411 156.062 185.446 157.053 186.274C159.034 187.945 161.578 188.699 164.003 188.551C166.428 188.404 168.705 187.354 170.376 185.668C172.047 183.997 173.082 181.705 173.215 179.28C173.348 176.855 172.579 174.312 170.893 172.345C170.05 171.369 169.015 170.527 167.818 169.935C166.635 169.344 165.289 168.989 163.929 168.915C161.193 168.767 158.384 169.846 156.432 171.828V171.843Z" fill="#313131"/>
      <path d="M133.113 178.718C132.448 178.496 131.812 178.082 131.339 177.476C130.851 176.885 130.555 176.071 130.526 175.243C130.496 174.415 130.733 173.543 131.176 172.804C131.62 172.064 132.27 171.473 132.995 171.029C134.429 170.142 136.248 169.935 137.756 170.142C139.309 170.334 140.684 170.793 141.985 171.251C144.573 172.197 146.924 173.321 149.29 173.676C149.881 173.765 150.473 173.809 151.079 173.78C151.375 173.78 151.671 173.72 151.981 173.706C152.277 173.632 152.587 173.602 152.883 173.513L153.341 173.395L153.785 173.232C154.096 173.129 154.377 172.981 154.687 172.848C154.983 172.715 155.264 172.537 155.574 172.375C155.87 172.197 156.151 172.005 156.461 171.842C155.796 173.07 154.805 174.164 153.549 174.962C152.292 175.776 150.709 176.175 149.201 176.219C147.678 176.264 146.2 175.983 144.824 175.613C143.449 175.229 142.148 174.741 140.906 174.282C140.285 174.046 139.679 173.824 139.072 173.632C138.481 173.425 137.889 173.277 137.328 173.158C136.174 172.907 135.154 172.922 134.163 173.292C133.69 173.469 133.246 173.735 132.877 174.075C132.522 174.43 132.241 174.874 132.093 175.391C131.945 175.909 131.945 176.485 132.123 177.062C132.3 177.639 132.655 178.201 133.128 178.718H133.113Z" fill="#313131"/>
      <path d="M163.175 148.465C162.657 147.992 162.095 147.637 161.504 147.474C160.927 147.311 160.336 147.311 159.833 147.459C159.315 147.607 158.872 147.888 158.517 148.243C158.162 148.613 157.911 149.056 157.733 149.529C157.378 150.52 157.378 151.54 157.63 152.694C157.763 153.256 157.911 153.847 158.118 154.439C158.31 155.03 158.532 155.651 158.783 156.257C159.241 157.499 159.744 158.786 160.129 160.161C160.513 161.536 160.809 163 160.764 164.538C160.735 166.061 160.35 167.628 159.537 168.9C158.739 170.172 157.659 171.162 156.432 171.842C156.609 171.532 156.802 171.251 156.964 170.955C157.127 170.645 157.304 170.364 157.437 170.068C157.556 169.758 157.718 169.477 157.822 169.166L157.985 168.722L158.103 168.264C158.206 167.968 158.236 167.658 158.295 167.362C158.31 167.052 158.384 166.771 158.369 166.46C158.399 165.869 158.339 165.262 158.251 164.686C157.881 162.305 156.743 159.984 155.767 157.396C155.293 156.095 154.82 154.719 154.628 153.182C154.406 151.673 154.613 149.855 155.486 148.406C155.929 147.681 156.521 147.03 157.245 146.572C157.97 146.114 158.842 145.877 159.67 145.907C160.513 145.936 161.312 146.217 161.903 146.705C162.509 147.178 162.923 147.814 163.145 148.48L163.175 148.465Z" fill="#313131"/>
      <path d="M206.085 117.575C208.91 116.644 211.719 115.905 214.484 115.136C217.264 114.381 220.014 113.627 222.765 112.844C225.515 112.06 228.251 111.261 231.016 110.448C233.781 109.65 236.546 108.807 239.444 108.127C237.137 110.005 234.565 111.513 231.918 112.799C229.256 114.071 226.476 115.121 223.637 115.919C220.798 116.718 217.885 117.294 214.943 117.59C212 117.886 209.043 117.945 206.085 117.561V117.575Z" fill="#313131"/>
      <path d="M215.164 149.707C217.486 147.829 220.044 146.335 222.691 145.034C225.352 143.762 228.132 142.713 230.971 141.914C233.81 141.101 236.723 140.539 239.666 140.228C242.608 139.933 245.566 139.874 248.523 140.258C245.699 141.19 242.904 141.929 240.124 142.698C237.344 143.452 234.594 144.206 231.844 144.975C229.093 145.744 226.358 146.542 223.593 147.356C220.828 148.154 218.062 148.997 215.164 149.677V149.707Z" fill="#313131"/>
      <path d="M217.663 115.771C219.246 117.886 220.473 120.163 221.567 122.514C222.646 124.865 223.548 127.29 224.273 129.774C224.998 132.259 225.545 134.802 225.87 137.375C226.18 139.948 226.299 142.565 225.973 145.182C224.968 142.742 224.184 140.317 223.401 137.907C222.632 135.497 221.892 133.087 221.197 130.662C220.488 128.237 219.822 125.812 219.201 123.342C218.595 120.873 218.003 118.374 217.663 115.771Z" fill="#313131"/>
      <path d="M229.212 112.503C230.291 114.914 231.09 117.339 231.874 119.764C232.628 122.189 233.337 124.614 234.003 127.039C234.668 129.464 235.304 131.904 235.91 134.358C236.502 136.828 237.108 139.297 237.537 141.899C235.895 139.829 234.624 137.552 233.544 135.186C232.465 132.82 231.607 130.381 230.927 127.882C230.247 125.383 229.744 122.839 229.434 120.281C229.138 117.708 229.005 115.121 229.227 112.489L229.212 112.503Z" fill="#313131"/>
      <path d="M308.661 139.208C308.099 141.397 306.798 143.408 304.92 144.783C303.057 146.158 300.572 146.883 298.088 146.454C296.861 146.247 295.648 145.788 294.569 145.064C293.504 144.339 292.573 143.378 291.893 142.269C290.503 140.036 290.089 137.197 290.754 134.624C291.405 132.052 293.12 129.745 295.427 128.458C296.565 127.808 297.837 127.409 299.123 127.29C300.41 127.172 301.696 127.349 302.879 127.763C305.26 128.591 307.093 130.41 308.055 132.525C309.045 134.639 309.223 137.02 308.661 139.208ZM308.661 139.208C309.223 137.02 308.868 134.595 307.67 132.732C307.079 131.8 306.295 131.002 305.393 130.425C304.491 129.848 303.485 129.479 302.465 129.331C300.425 129.02 298.414 129.656 296.905 130.809C295.382 131.963 294.318 133.604 293.845 135.423C293.386 137.242 293.519 139.208 294.303 140.953C295.087 142.698 296.536 144.206 298.473 144.916C299.434 145.271 300.498 145.433 301.563 145.36C302.628 145.271 303.707 144.96 304.668 144.413C306.62 143.349 308.084 141.397 308.646 139.208H308.661Z" fill="#313131"/>
      <path d="M317.148 113.686C313.156 114.219 309.326 115.091 305.97 116.792C302.598 118.463 299.744 120.917 297.467 123.889C297.186 124.274 296.891 124.629 296.639 125.028L296.24 125.604C296.122 125.797 295.989 125.974 295.87 126.166C295.397 126.935 294.983 127.778 294.584 128.621C293.83 130.336 293.194 132.125 292.809 133.959C292.425 135.792 292.233 137.67 292.528 139.489C292.676 140.406 292.972 141.278 293.43 142.106C293.889 142.92 294.554 143.659 295.368 144.265C294.406 143.955 293.49 143.393 292.75 142.624C291.996 141.855 291.449 140.909 291.065 139.903C290.296 137.877 290.192 135.689 290.37 133.589C290.577 131.49 291.065 129.434 291.819 127.468C292.188 126.477 292.632 125.516 293.164 124.569C293.297 124.333 293.43 124.096 293.578 123.86C293.726 123.638 293.874 123.416 294.007 123.209C294.288 122.765 294.613 122.351 294.924 121.923C295.56 121.08 296.255 120.281 297.009 119.527C297.763 118.773 298.561 118.078 299.404 117.427C301.105 116.156 302.983 115.106 304.979 114.411C308.956 112.977 313.215 112.829 317.163 113.657L317.148 113.686Z" fill="#313131"/>
      <path d="M312.993 121.745C313.555 119.557 314.856 117.546 316.734 116.171C318.597 114.795 321.082 114.071 323.566 114.5C324.793 114.707 326.006 115.165 327.085 115.89C328.15 116.614 329.081 117.575 329.761 118.684C331.151 120.917 331.565 123.756 330.9 126.329C330.249 128.902 328.534 131.209 326.227 132.495C325.089 133.146 323.817 133.545 322.531 133.663C321.244 133.782 319.958 133.604 318.775 133.19C316.394 132.362 314.561 130.543 313.6 128.429C312.609 126.314 312.431 123.934 312.993 121.745ZM312.993 121.745C312.431 123.934 312.786 126.359 313.984 128.222C314.576 129.153 315.359 129.952 316.261 130.528C317.163 131.105 318.169 131.475 319.189 131.623C321.23 131.933 323.241 131.297 324.749 130.144C326.272 128.991 327.336 127.349 327.81 125.531C328.268 123.712 328.135 121.745 327.351 120C326.567 118.256 325.118 116.747 323.181 116.038C322.22 115.683 321.156 115.52 320.091 115.594C319.026 115.683 317.947 115.993 316.986 116.54C315.034 117.605 313.57 119.557 313.008 121.745H312.993Z" fill="#313131"/>
      <path d="M304.491 147.267C308.483 146.735 312.313 145.862 315.67 144.162C319.041 142.491 321.895 140.036 324.172 137.064C324.453 136.68 324.749 136.325 325 135.926L325.399 135.349C325.518 135.157 325.651 134.979 325.769 134.787C326.242 134.018 326.656 133.175 327.055 132.333C327.809 130.617 328.445 128.828 328.83 126.995C329.214 125.161 329.406 123.283 329.111 121.464C328.963 120.548 328.667 119.675 328.209 118.847C327.75 118.034 327.085 117.294 326.272 116.688C327.233 116.999 328.15 117.561 328.889 118.33C329.643 119.098 330.19 120.045 330.575 121.05C331.343 123.076 331.447 125.265 331.27 127.364C331.063 129.464 330.575 131.519 329.82 133.486C329.451 134.477 329.007 135.438 328.475 136.384C328.342 136.621 328.209 136.857 328.061 137.094C327.913 137.316 327.765 137.537 327.632 137.744C327.351 138.188 327.026 138.602 326.715 139.031C326.079 139.874 325.384 140.672 324.63 141.426C323.876 142.18 323.078 142.875 322.235 143.526C320.534 144.798 318.657 145.848 316.66 146.543C312.683 147.977 308.424 148.125 304.476 147.297L304.491 147.267Z" fill="#313131"/>
      <path d="M373.958 178.97C372.302 180.493 370.099 181.38 367.792 181.424C365.5 181.469 363.09 180.641 361.286 178.97C360.384 178.142 359.615 177.107 359.098 175.953C358.566 174.8 358.285 173.513 358.27 172.212C358.225 169.61 359.364 166.948 361.345 165.159C362.336 164.272 363.504 163.577 364.761 163.163C366.018 162.749 367.349 162.601 368.65 162.734C369.951 162.867 371.208 163.266 372.302 163.902C373.411 164.538 374.358 165.381 375.112 166.357C376.62 168.323 377.226 170.793 376.975 173.07C376.724 175.362 375.644 177.491 373.973 178.999L373.958 178.97ZM373.958 178.97C375.629 177.462 376.576 175.214 376.517 173.026C376.487 171.931 376.236 170.852 375.777 169.891C375.319 168.93 374.668 168.087 373.914 167.407C372.376 166.046 370.395 165.41 368.517 165.47C366.624 165.529 364.85 166.268 363.504 167.495C362.159 168.723 361.257 170.423 361.02 172.316C360.798 174.179 361.242 176.219 362.469 177.876C363.075 178.704 363.859 179.413 364.776 179.96C365.693 180.493 366.743 180.848 367.822 180.966C369.996 181.217 372.317 180.478 373.973 178.955L373.958 178.97Z" fill="#313131"/>
      <path d="M380.598 196.729C380.021 195.412 379.592 193.978 379.622 192.455C379.622 190.932 380.199 189.394 381.056 188.108C381.914 186.821 383.008 185.757 384.147 184.796C385.226 183.864 386.305 182.977 387.326 182.016C389.351 180.094 391.259 178.068 392.797 175.85C394.32 173.647 395.458 171.207 395.532 168.811C395.636 166.416 394.527 164.153 392.738 162.276C391.865 161.344 390.86 160.575 389.766 160.028C389.218 159.762 388.642 159.555 388.05 159.422C387.459 159.274 386.853 159.2 386.232 159.2C384.989 159.2 383.718 159.496 382.52 159.998C381.308 160.486 380.154 161.211 379.149 162.098C378.114 162.971 377.226 164.02 376.561 165.218C376.236 165.81 375.984 166.46 375.881 167.126C375.763 167.791 375.792 168.516 376.073 169.181C375.629 168.604 375.422 167.85 375.393 167.096C375.363 166.342 375.511 165.588 375.748 164.863C376.221 163.414 377.049 162.128 378.04 160.974C379.045 159.836 380.243 158.86 381.603 158.091C382.964 157.337 384.501 156.834 386.128 156.686C387.74 156.524 389.425 156.79 390.948 157.426C392.471 158.047 393.802 159.023 394.941 160.117C396.065 161.211 397.055 162.512 397.765 164.02C398.475 165.514 398.83 167.229 398.771 168.9C398.711 170.571 398.283 172.168 397.647 173.617C397.011 175.066 396.198 176.397 395.281 177.595C393.447 180.02 391.274 182.06 388.967 183.864C387.814 184.766 386.631 185.639 385.418 186.422C384.265 187.176 383.2 188.019 382.313 189.025C381.411 190.001 380.775 191.184 380.524 192.529C380.258 193.86 380.391 195.309 380.642 196.714L380.598 196.729Z" fill="#313131"/>
      <path d="M426.037 218.864C426.791 219.175 427.501 219.544 428.211 219.973C428.921 220.387 429.586 220.86 430.237 221.378C430.887 221.91 431.493 222.502 432.041 223.197C432.321 223.551 432.573 223.936 432.78 224.394C432.987 224.838 433.179 225.355 433.194 225.962C433.238 226.568 433.076 227.278 432.721 227.84C432.366 228.401 431.878 228.801 431.419 229.082C430.932 229.377 430.547 229.525 430.148 229.703C429.749 229.88 429.379 229.998 428.98 230.161C427.457 230.723 425.919 231.196 424.396 231.64C421.335 232.512 418.23 233.222 415.11 233.799C411.975 234.36 408.825 234.819 405.587 234.937C408.5 233.518 411.472 232.409 414.474 231.359C417.476 230.324 420.492 229.407 423.523 228.549L428.033 227.278C428.388 227.174 428.787 227.071 429.113 226.952C429.438 226.834 429.823 226.731 430.015 226.627C430.251 226.524 430.399 226.405 430.488 226.316C430.577 226.228 430.636 226.139 430.665 225.947C430.739 225.577 430.547 224.912 430.251 224.306C429.941 223.684 429.542 223.049 429.083 222.442C428.181 221.2 427.117 220.032 426.022 218.849L426.037 218.864Z" fill="#313131"/>
      <path d="M429.542 228.564C430.296 228.874 431.005 229.244 431.715 229.673C432.425 230.087 433.09 230.56 433.741 231.078C434.377 231.61 434.998 232.202 435.545 232.896C435.826 233.251 436.077 233.636 436.284 234.094C436.491 234.538 436.683 235.055 436.698 235.662C436.743 236.268 436.58 236.978 436.225 237.539C435.87 238.101 435.382 238.501 434.924 238.782C434.436 239.077 434.051 239.225 433.652 239.403C433.253 239.58 432.883 239.698 432.484 239.861C430.961 240.423 429.423 240.896 427.9 241.34C424.839 242.212 421.734 242.922 418.614 243.499C415.479 244.06 412.33 244.519 409.092 244.637C412.005 243.218 414.977 242.109 417.978 241.059C420.98 240.024 423.997 239.107 427.028 238.249L431.538 236.978C431.893 236.874 432.292 236.771 432.617 236.652C432.942 236.534 433.327 236.43 433.519 236.327C433.756 236.223 433.904 236.105 433.992 236.016C434.081 235.928 434.14 235.839 434.17 235.647C434.244 235.277 434.051 234.612 433.756 234.005C433.445 233.384 433.046 232.749 432.588 232.142C431.686 230.9 430.621 229.732 429.527 228.549L429.542 228.564Z" fill="#313131"/>
      <path d="M432.292 238.471C433.046 238.782 433.756 239.151 434.466 239.58C435.175 239.994 435.841 240.467 436.491 240.985C437.142 241.517 437.748 242.109 438.295 242.804C438.576 243.159 438.828 243.543 439.035 244.001C439.242 244.445 439.434 244.962 439.449 245.569C439.493 246.175 439.33 246.885 438.976 247.447C438.621 248.009 438.133 248.408 437.674 248.689C437.186 248.984 436.802 249.132 436.403 249.31C436.003 249.487 435.634 249.605 435.235 249.768C433.712 250.33 432.174 250.803 430.651 251.247C427.59 252.119 424.485 252.829 421.365 253.406C418.23 253.968 415.08 254.426 411.842 254.544C414.755 253.125 417.727 252.016 420.729 250.966C423.731 249.931 426.747 249.014 429.778 248.156L434.288 246.885C434.643 246.781 435.042 246.678 435.368 246.559C435.693 246.441 436.077 246.338 436.27 246.249C436.506 246.145 436.654 246.027 436.743 245.938C436.832 245.85 436.891 245.761 436.92 245.569C436.994 245.199 436.802 244.534 436.506 243.927C436.196 243.306 435.796 242.671 435.338 242.064C434.436 240.822 433.371 239.654 432.277 238.471H432.292Z" fill="#313131"/>
      <path d="M435.042 248.363C436.033 249.177 436.95 250.108 437.704 251.202C438.458 252.282 439.064 253.539 439.271 254.943C439.493 256.348 439.271 257.886 438.576 259.187C437.911 260.503 436.861 261.583 435.693 262.396C434.525 263.224 433.223 263.815 431.878 264.2C430.532 264.599 429.142 264.806 427.738 264.836C426.348 264.88 424.913 264.658 423.597 264.363C422.267 264.052 420.965 263.594 419.708 263.047C418.466 262.485 417.283 261.819 416.16 261.065C415.051 260.311 414.001 259.498 412.995 258.64C410.999 256.925 409.225 255.062 407.465 253.273C405.706 251.483 403.931 249.753 401.905 248.423C400.885 247.757 399.791 247.21 398.623 246.84C397.455 246.456 396.198 246.264 394.926 246.219C397.41 245.584 400.22 245.924 402.659 247.047C405.114 248.142 407.214 249.783 409.195 251.439C411.177 253.095 413.025 254.81 414.947 256.319C416.869 257.842 418.88 259.187 421.039 260.148C422.119 260.636 423.228 261.021 424.366 261.317C425.52 261.612 426.614 261.79 427.767 261.834C430.044 261.893 432.395 261.42 434.347 260.311C435.323 259.764 436.166 259.039 436.772 258.152C437.379 257.265 437.719 256.215 437.719 255.077C437.719 253.938 437.408 252.77 436.935 251.631C436.447 250.493 435.767 249.428 435.042 248.363Z" fill="#313131"/>
      <path d="M401.832 382.124C401.92 382.937 401.935 383.735 401.891 384.563C401.861 385.377 401.773 386.19 401.61 387.018C401.447 387.831 401.225 388.659 400.871 389.473C400.693 389.887 400.471 390.286 400.176 390.7C399.88 391.099 399.51 391.498 398.993 391.824C398.475 392.149 397.78 392.341 397.115 392.297C396.449 392.253 395.873 392.016 395.399 391.75C394.897 391.454 394.601 391.203 394.246 390.936C393.891 390.67 393.61 390.404 393.3 390.138C392.072 389.059 390.934 387.95 389.81 386.811C387.577 384.534 385.478 382.153 383.467 379.684C381.47 377.2 379.578 374.642 377.922 371.862C380.554 373.74 382.964 375.825 385.3 377.969C387.636 380.113 389.884 382.331 392.087 384.578L395.355 387.935C395.621 388.201 395.902 388.497 396.154 388.733C396.42 388.97 396.686 389.251 396.863 389.384C397.056 389.547 397.233 389.62 397.351 389.65C397.47 389.68 397.588 389.694 397.765 389.635C398.135 389.517 398.623 389.044 399.007 388.482C399.407 387.905 399.776 387.255 400.087 386.56C400.737 385.184 401.255 383.676 401.787 382.153L401.832 382.124Z" fill="#313131"/>
      <path d="M394.985 389.827C395.074 390.641 395.089 391.439 395.044 392.267C395.015 393.08 394.926 393.894 394.778 394.722C394.616 395.535 394.394 396.363 394.039 397.176C393.862 397.59 393.64 397.99 393.344 398.404C393.048 398.803 392.679 399.202 392.161 399.527C391.644 399.853 390.949 400.045 390.283 400.001C389.618 399.956 389.041 399.72 388.568 399.454C388.065 399.158 387.769 398.906 387.415 398.64C387.06 398.374 386.779 398.108 386.468 397.842C385.241 396.762 384.102 395.653 382.979 394.515C380.746 392.238 378.646 389.857 376.635 387.388C374.639 384.903 372.746 382.345 371.09 379.565C373.722 381.443 376.132 383.528 378.469 385.672C380.805 387.816 383.052 390.034 385.256 392.282L388.524 395.639C388.79 395.905 389.071 396.2 389.322 396.437C389.588 396.674 389.854 396.955 390.032 397.088C390.224 397.25 390.401 397.324 390.535 397.354C390.653 397.383 390.771 397.398 390.949 397.339C391.318 397.221 391.806 396.748 392.191 396.186C392.59 395.609 392.96 394.958 393.27 394.263C393.921 392.888 394.438 391.38 394.971 389.857L394.985 389.827Z" fill="#313131"/>
      <path d="M387.592 396.969C387.607 398.374 387.489 399.794 387.222 401.198C387.089 401.908 386.912 402.603 386.675 403.298C386.424 403.993 386.113 404.688 385.625 405.339C385.374 405.664 385.078 405.975 384.679 406.241C384.295 406.507 383.792 406.699 383.274 406.729C382.21 406.788 381.322 406.255 380.731 405.797C379.518 404.895 378.498 403.964 377.448 403.002C373.308 399.187 369.419 395.18 365.604 391.084L362.78 387.994C361.922 387.048 360.961 386.19 359.941 385.48C358.921 384.77 357.812 384.209 356.703 383.972C356.422 383.898 356.156 383.883 355.875 383.839C355.608 383.839 355.328 383.809 355.076 383.839C354.544 383.883 354.041 384.016 353.597 384.268C353.154 384.519 352.74 384.859 352.4 385.303C352.074 385.746 351.793 386.264 351.572 386.841C351.158 387.979 351.01 389.295 351.025 390.626C351.025 391.957 351.232 393.302 351.498 394.663C351.779 396.008 352.163 397.354 352.577 398.699C351.113 396.304 349.945 393.672 349.472 390.774C349.25 389.325 349.191 387.802 349.561 386.264C349.738 385.495 350.049 384.726 350.477 384.016C350.936 383.307 351.527 382.656 352.267 382.168C353.745 381.162 355.623 380.926 357.22 381.207C358.862 381.458 360.325 382.138 361.627 382.966C362.928 383.795 364.066 384.8 365.131 385.879L367.985 388.94C371.77 393.021 375.497 397.176 379.252 401.258C380.184 402.263 381.145 403.313 382.077 404.2C382.52 404.644 382.919 404.88 383.274 404.91C383.614 404.969 384.058 404.762 384.472 404.348C384.886 403.949 385.256 403.402 385.566 402.825C385.892 402.248 386.158 401.627 386.409 400.991C386.912 399.72 387.282 398.374 387.622 397.014L387.592 396.969Z" fill="#313131"/>
      <path d="M423.095 294.69C423.035 299.23 422.459 303.74 421.616 308.205C420.773 312.656 419.62 317.062 418.245 321.365C416.855 325.683 415.213 329.912 413.335 334.023C411.443 338.133 409.343 342.155 406.859 345.955C408.131 341.593 409.58 337.35 410.999 333.091C412.419 328.847 413.823 324.618 415.199 320.374C416.574 316.131 417.89 311.872 419.191 307.599C420.492 303.325 421.734 299.023 423.095 294.69Z" fill="#313131"/>
      <path d="M415.598 348.721C415.968 347.523 416.352 346.355 416.737 345.172L417.905 341.653L420.256 334.644L420.492 333.919L421.38 333.86C423.79 333.712 426.082 332.81 427.93 331.361C429.778 329.912 431.183 327.93 431.878 325.712C432.603 323.494 432.617 321.069 431.952 318.822C431.287 316.574 429.941 314.504 428.078 312.981L427.383 312.419L427.605 311.68C428.329 309.329 429.024 306.963 429.719 304.597L430.754 301.034C431.094 299.836 431.449 298.653 431.804 297.455C431.775 298.712 431.701 299.954 431.597 301.196C431.508 302.438 431.361 303.68 431.213 304.922C430.902 307.392 430.488 309.861 429.985 312.301L429.527 311C431.952 312.626 433.845 315.096 434.821 317.905C435.309 319.31 435.56 320.803 435.575 322.297C435.575 323.79 435.353 325.284 434.909 326.718C434.007 329.572 432.144 332.115 429.704 333.816C427.279 335.546 424.307 336.433 421.394 336.344L422.518 335.56C421.498 337.823 420.433 340.07 419.28 342.274C418.703 343.368 418.112 344.462 417.491 345.541C416.87 346.621 416.249 347.685 415.568 348.735L415.598 348.721Z" fill="#313131"/>
      <path d="M324.024 411.934C321.584 413.959 318.878 415.586 316.039 416.976C313.2 418.351 310.228 419.445 307.167 420.258C304.121 421.072 300.986 421.604 297.837 421.841C294.687 422.062 291.523 422.003 288.403 421.456C291.478 420.672 294.48 420.051 297.467 419.356C300.454 418.676 303.397 417.952 306.339 417.183C309.267 416.399 312.195 415.556 315.122 414.654C318.05 413.767 320.978 412.806 324.024 411.948V411.934Z" fill="#313131"/>
      <path d="M313.821 445.144C312.254 441.862 310.997 438.49 309.843 435.089C308.69 431.689 307.67 428.258 306.738 424.813C305.807 421.353 304.993 417.878 304.298 414.359C303.618 410.839 303.027 407.291 302.746 403.668C304.313 406.95 305.57 410.322 306.723 413.723C307.877 417.124 308.897 420.554 309.829 423.999C310.745 427.46 311.573 430.949 312.268 434.454C312.949 437.973 313.54 441.522 313.821 445.144Z" fill="#313131"/>
      <path d="M317.858 436.051C317.843 436.953 317.71 437.795 317.562 438.638C317.414 439.481 317.207 440.294 316.985 441.108C316.764 441.921 316.498 442.705 316.217 443.488C315.936 444.272 315.61 445.041 315.285 445.795L314.487 447.643L312.89 446.431L311.899 445.677C311.574 445.411 311.248 445.159 310.938 444.893C310.302 444.361 309.681 443.799 309.089 443.222C308.498 442.631 307.906 442.024 307.359 441.374C306.812 440.723 306.28 440.043 305.822 439.274C306.694 439.481 307.507 439.777 308.291 440.102C309.075 440.427 309.829 440.797 310.583 441.182C311.322 441.566 312.032 441.995 312.742 442.439C313.097 442.66 313.437 442.897 313.777 443.119L314.797 443.843L312.387 444.479C312.727 443.725 313.082 442.971 313.481 442.246C313.88 441.522 314.28 440.782 314.723 440.087C315.167 439.378 315.64 438.683 316.157 438.003C316.675 437.322 317.222 436.672 317.887 436.051H317.858Z" fill="#313131"/>
      <path d="M250.12 452.168C248.819 451.961 247.503 452.05 246.172 451.828C245.507 451.724 244.841 451.547 244.235 451.207C243.629 450.867 243.082 450.379 242.683 449.817C241.869 448.649 241.529 447.274 241.337 445.943C241.16 444.597 241.145 443.252 241.189 441.906C241.293 439.23 241.647 436.598 242.121 433.981C242.594 431.363 243.171 428.79 243.777 426.218L245.758 426.912C244.694 429.545 243.481 432.103 242.195 434.631C240.893 437.16 239.503 439.644 237.862 442.024C237.034 443.207 236.147 444.376 235.127 445.47C234.609 446.017 234.077 446.549 233.456 447.052C232.835 447.54 232.154 448.013 231.326 448.368C230.513 448.723 229.448 448.915 228.399 448.678C227.349 448.427 226.476 447.865 225.811 446.993C225.16 446.12 224.924 445.13 224.835 444.287C224.746 443.414 224.791 442.631 224.879 441.862C225.057 440.339 225.382 438.949 225.678 437.574C225.988 436.199 226.299 434.853 226.565 433.507C227.097 430.816 227.452 428.14 227.393 425.508C227.334 422.876 226.861 420.288 225.87 417.878C224.879 415.482 223.46 413.235 221.523 411.83C219.615 410.411 217.176 409.997 215.002 410.854C212.843 411.712 210.891 413.634 210.388 415.808C210.137 416.887 210.241 417.996 210.729 419.002C211.202 419.992 212.074 420.909 213.08 421.56C214.085 422.225 215.238 422.639 216.421 422.698C217.604 422.772 218.787 422.476 219.837 421.885C220.887 421.294 221.804 420.392 222.543 419.342C222.721 419.076 222.898 418.809 223.061 418.528L223.593 417.612C223.963 416.991 224.332 416.384 224.732 415.778C226.314 413.383 228.162 411.12 230.528 409.375C231.711 408.518 233.012 407.793 234.446 407.394C235.156 407.202 235.851 407.054 236.561 406.95C237.271 406.832 237.995 406.773 238.705 406.758C240.139 406.729 241.588 406.906 242.949 407.379C244.294 407.852 245.566 408.592 246.498 409.656C245.477 408.681 244.176 408.089 242.845 407.749C241.5 407.424 240.124 407.35 238.764 407.483C237.404 407.616 236.058 407.941 234.772 408.385C233.515 408.828 232.376 409.553 231.341 410.411C229.286 412.141 227.659 414.388 226.255 416.739C225.9 417.331 225.574 417.937 225.264 418.543L224.776 419.475C224.598 419.815 224.406 420.14 224.214 420.451C223.401 421.722 222.336 422.905 220.976 423.763C219.615 424.606 217.989 425.079 216.362 425.035C214.736 425.005 213.139 424.487 211.778 423.659C211.098 423.245 210.462 422.757 209.886 422.181C209.309 421.604 208.792 420.953 208.392 420.199C207.564 418.706 207.328 416.858 207.697 415.216C208.037 413.545 208.895 412.081 209.974 410.884C210.522 410.292 211.128 409.76 211.778 409.287C212.429 408.828 213.124 408.414 213.893 408.104C215.416 407.468 217.131 407.231 218.787 407.468C220.443 407.675 222.011 408.385 223.312 409.316C224.628 410.248 225.707 411.431 226.595 412.688C227.482 413.945 228.192 415.29 228.768 416.665C229.936 419.445 230.528 422.462 230.557 425.434C230.617 428.406 230.188 431.319 229.611 434.128C229.315 435.533 228.99 436.908 228.68 438.269C228.369 439.629 228.059 440.96 227.911 442.231C227.837 442.867 227.792 443.474 227.837 444.006C227.881 444.538 227.999 444.967 228.192 445.233C228.369 445.499 228.739 445.751 229.049 445.825C229.36 445.899 229.759 445.884 230.232 445.692C231.179 445.322 232.199 444.479 233.086 443.547C233.988 442.616 234.846 441.551 235.644 440.457C237.241 438.254 238.69 435.903 240.051 433.493C241.411 431.082 242.653 428.583 243.821 426.084L245.803 426.779C245.063 429.293 244.368 431.807 243.792 434.35C243.215 436.893 242.683 439.437 242.416 442.01C242.283 443.296 242.224 444.583 242.313 445.854C242.402 447.111 242.623 448.398 243.244 449.447C243.555 449.965 243.984 450.423 244.501 450.763C245.019 451.103 245.61 451.34 246.246 451.488C247.503 451.813 248.834 451.858 250.12 452.183V452.168Z" fill="#313131"/>
      <path d="M169.607 417.301C168.557 416.503 167.433 415.837 166.235 415.482C165.038 415.113 163.81 415.039 162.494 414.994C161.193 414.935 159.759 414.832 158.369 414.329C156.979 413.841 155.737 412.983 154.672 412.022C153.637 411.032 152.691 409.834 152.099 408.414C151.478 407.01 151.271 405.516 151.109 404.215C150.946 402.914 150.783 401.805 150.355 400.814C149.955 399.823 149.305 398.936 148.521 398.108C147.708 397.295 146.835 396.644 145.845 396.215C144.869 395.772 143.76 395.579 142.459 395.402C141.172 395.21 139.664 394.988 138.274 394.337C136.869 393.716 135.686 392.74 134.725 391.691C133.779 390.611 132.951 389.354 132.478 387.95C131.99 386.545 131.916 385.111 131.886 383.809C131.856 382.508 131.812 381.266 131.472 380.068C131.132 378.871 130.496 377.732 129.712 376.667C130.215 377.096 130.718 377.525 131.147 378.043C131.25 378.176 131.368 378.294 131.472 378.427L131.753 378.856C131.842 379.004 131.945 379.137 132.034 379.285L132.27 379.743C132.921 380.97 133.202 382.375 133.424 383.661C133.646 384.948 133.897 386.146 134.415 387.181C134.917 388.216 135.642 389.118 136.499 389.931C137.387 390.715 138.318 391.351 139.353 391.735C140.374 392.119 141.497 392.267 142.799 392.386C144.1 392.504 145.608 392.696 147.042 393.288C148.477 393.879 149.734 394.825 150.769 395.846C151.774 396.91 152.706 398.167 153.253 399.631C153.815 401.08 153.992 402.588 154.081 403.89C154.17 405.191 154.303 406.315 154.672 407.35C155.042 408.385 155.648 409.331 156.432 410.233C157.23 411.106 158.118 411.86 159.138 412.377C160.158 412.895 161.356 413.176 162.642 413.427C163.929 413.678 165.319 413.989 166.531 414.654L166.99 414.906C167.137 414.994 167.271 415.098 167.418 415.201L167.832 415.497C167.966 415.601 168.084 415.719 168.217 415.837C168.734 416.281 169.148 416.798 169.577 417.301H169.607Z" fill="#313131"/>
      <path d="M175.876 411.15C174.826 410.351 173.703 409.686 172.505 409.331C171.307 408.961 170.08 408.888 168.764 408.843C167.463 408.784 166.028 408.681 164.639 408.178C163.249 407.69 162.006 406.832 160.942 405.871C159.907 404.88 158.96 403.683 158.369 402.263C157.748 400.858 157.541 399.365 157.378 398.064C157.216 396.762 157.053 395.653 156.624 394.663C156.225 393.672 155.574 392.785 154.791 391.957C153.977 391.144 153.105 390.493 152.114 390.064C151.138 389.62 150.029 389.428 148.728 389.251C147.442 389.059 145.933 388.837 144.543 388.186C143.139 387.565 141.956 386.589 140.995 385.539C140.048 384.46 139.22 383.203 138.747 381.798C138.259 380.394 138.185 378.959 138.156 377.658C138.126 376.357 138.082 375.115 137.742 373.917C137.401 372.719 136.766 371.581 135.982 370.516C136.485 370.945 136.987 371.374 137.416 371.891C137.52 372.024 137.638 372.143 137.742 372.276L138.023 372.705C138.111 372.852 138.215 372.985 138.303 373.133L138.54 373.592C139.191 374.819 139.472 376.224 139.693 377.51C139.915 378.797 140.167 379.994 140.684 381.029C141.187 382.065 141.911 382.966 142.769 383.78C143.656 384.563 144.588 385.199 145.623 385.584C146.643 385.968 147.767 386.116 149.068 386.234C150.369 386.353 151.878 386.545 153.312 387.136C154.746 387.728 156.003 388.674 157.038 389.694C158.044 390.759 158.975 392.016 159.522 393.48C160.084 394.929 160.262 396.437 160.35 397.738C160.439 399.04 160.572 400.163 160.942 401.198C161.312 402.234 161.918 403.18 162.701 404.082C163.5 404.954 164.387 405.708 165.407 406.226C166.428 406.743 167.625 407.024 168.912 407.276C170.198 407.527 171.588 407.838 172.801 408.503L173.259 408.754C173.407 408.843 173.54 408.947 173.688 409.05L174.102 409.346C174.235 409.449 174.353 409.568 174.486 409.686C175.004 410.13 175.418 410.647 175.847 411.15H175.876Z" fill="#313131"/>
      <path d="M105.033 338.592C106.394 335.072 108.36 331.76 110.992 328.892C112.308 327.472 113.802 326.171 115.473 325.091C117.144 324.012 119.007 323.169 120.973 322.666C121.964 322.43 122.955 322.238 123.96 322.164L124.714 322.105H125.469C125.971 322.09 126.474 322.105 126.977 322.149C128.973 322.312 130.925 322.77 132.744 323.465C136.396 324.87 139.59 327.058 142.281 329.705C138.836 328.167 135.464 326.688 132.004 325.875C128.559 325.032 125.055 324.914 121.772 325.757C118.489 326.6 115.458 328.404 112.722 330.696C109.972 332.988 107.532 335.753 105.033 338.577V338.592Z" fill="#313131"/>
      <path d="M98.3499 310.527C101.854 311.931 105.285 313.292 108.774 314.09C112.249 314.903 115.769 315.155 119.081 314.415C122.393 313.691 125.454 312.005 128.16 309.699C130.881 307.407 133.232 304.568 135.612 301.64C134.4 305.203 132.551 308.619 129.919 311.517C128.603 312.966 127.08 314.253 125.365 315.303C124.936 315.569 124.507 315.82 124.049 316.027L123.369 316.367L122.674 316.663C121.742 317.047 120.766 317.328 119.776 317.565C117.794 317.994 115.754 318.083 113.772 317.876C111.791 317.669 109.869 317.195 108.05 316.515C104.412 315.14 101.159 313.07 98.3647 310.541L98.3499 310.527Z" fill="#313131"/>
      <path d="M124.803 329.764C123.753 328.226 123.014 326.614 122.378 324.988C121.742 323.347 121.24 321.69 120.84 320.005C120.441 318.319 120.145 316.604 119.968 314.859C119.805 313.114 119.731 311.34 119.983 309.492C121.033 311.029 121.772 312.641 122.423 314.268C123.058 315.909 123.561 317.565 123.96 319.251C124.36 320.936 124.655 322.652 124.833 324.396C124.995 326.141 125.069 327.916 124.833 329.749L124.803 329.764Z" fill="#313131"/>
    </g>
    <path d="M462.679 280.021L457.577 279.755C457.607 247.668 449.444 215.138 432.248 185.357L436.654 182.814C454.368 213.496 462.752 247.003 462.664 280.036L462.679 280.021Z" fill="#313131"/>
    <path d="M365.9 111.69L363.12 115.964C335.351 99.8904 303.086 90.6931 268.692 90.6931V85.5917C304.106 85.5917 337.317 95.0847 365.9 111.675V111.69Z" fill="#313131"/>
    <path d="M171.721 111.335L174.028 115.89C146.214 131.904 122.127 155.252 104.945 185.032L100.538 182.489C118.253 151.806 143.08 127.793 171.736 111.35L171.721 111.335Z" fill="#313131"/>
    <path d="M74.3215 279.312L79.423 279.578C79.3934 311.665 87.5556 344.196 104.753 373.976L100.346 376.519C82.6316 345.837 74.2476 312.33 74.3363 279.297L74.3215 279.312Z" fill="#313131"/>
    <path d="M171.1 447.643L173.88 443.37C201.65 459.443 233.914 468.64 268.308 468.64V473.742C232.894 473.742 199.683 464.249 171.1 447.658V447.643Z" fill="#313131"/>
    <path d="M365.279 448.013L362.972 443.459C390.786 427.445 414.873 404.097 432.055 374.316L436.477 376.859C418.762 407.542 393.935 431.555 365.279 447.998V448.013Z" fill="#313131"/>
    <path d="M365.959 112.71C394.956 129.597 419.088 153.743 435.796 182.592L432.558 184.234C416.16 156.006 392.516 132.377 364.14 115.845L365.944 112.71M365.678 111.705L363.135 116.111C392.915 133.308 416.248 157.396 432.277 185.195L436.832 182.888C420.374 154.231 396.36 129.405 365.693 111.69L365.678 111.705Z" fill="#313131"/>
    <path d="M268.071 86.2424L267.879 89.8651C235.23 89.9538 202.951 98.6188 174.442 114.929L172.638 111.794C201.753 95.1292 234.727 86.3015 268.071 86.2424ZM268.382 85.5031C235.496 85.5031 202.152 93.8871 171.618 111.513L174.161 115.919C203.897 98.7519 236.354 90.5897 268.382 90.5897C268.441 90.5897 268.5 90.5897 268.559 90.5897L268.825 85.4883C268.663 85.4883 268.515 85.4883 268.352 85.4883L268.382 85.5031Z" fill="#313131"/>
    <path d="M100.775 183.317L103.806 185.298C87.5556 213.615 78.9202 245.894 78.7871 278.75H75.1644C75.2975 245.199 84.1399 212.225 100.76 183.332M100.509 182.282C83.9181 210.864 74.425 244.075 74.425 279.489H79.5264C79.5264 245.096 88.7238 212.846 104.797 185.062L100.524 182.282H100.509Z" fill="#313131"/>
    <path d="M104.427 375.115C120.826 403.342 144.47 426.972 172.845 443.503L171.041 446.638C142.045 429.751 117.913 405.605 101.204 376.756L104.442 375.115M104.738 374.139L100.184 376.446C116.641 405.102 140.655 429.929 171.322 447.643L173.866 443.222C144.085 426.025 120.737 401.938 104.723 374.139H104.738Z" fill="#313131"/>
    <path d="M362.543 444.42L364.347 447.555C335.232 464.219 302.258 473.047 268.914 473.106L269.106 469.483C301.755 469.394 334.035 460.73 362.543 444.42ZM362.809 443.414C333.074 460.582 300.617 468.744 268.589 468.744C268.53 468.744 268.471 468.744 268.411 468.744L268.145 473.845C268.308 473.845 268.456 473.845 268.618 473.845C301.504 473.845 334.848 465.461 365.382 447.836L362.839 443.429L362.809 443.414Z" fill="#313131"/>
    <path d="M461.821 280.598C461.688 314.149 452.845 347.124 436.225 376.017L433.194 374.035C449.444 345.719 458.08 313.439 458.213 280.584H461.836M462.575 279.844H457.474C457.474 314.238 448.276 346.488 432.203 374.272L436.476 377.052C453.067 348.469 462.56 315.258 462.56 279.844H462.575Z" fill="#313131"/>
    <path d="M366.432 232.083C371.332 232.083 375.304 228.111 375.304 223.211C375.304 218.311 371.332 214.339 366.432 214.339C361.532 214.339 357.56 218.311 357.56 223.211C357.56 228.111 361.532 232.083 366.432 232.083Z" stroke="#313131" stroke-width="0.25" stroke-linecap="round" stroke-linejoin="round"/>
    <path d="M332.748 177.299C335.203 181.542 333.739 186.969 329.51 189.409C325.266 191.864 319.839 190.4 317.4 186.156C314.96 181.912 316.409 176.485 320.638 174.046C324.867 171.606 330.308 173.055 332.748 177.284V177.299Z" stroke="#313131" stroke-width="0.25" stroke-linecap="round" stroke-linejoin="round"/>
    <path d="M272.951 158.801C277.195 161.255 278.644 166.667 276.189 170.911C273.735 175.155 268.323 176.604 264.079 174.149C259.835 171.694 258.386 166.283 260.841 162.039C263.295 157.795 268.707 156.346 272.951 158.801Z" stroke="#313131" stroke-width="0.25" stroke-linecap="round" stroke-linejoin="round"/>
    <path d="M211.897 172.685C216.791 172.685 220.769 176.648 220.769 181.557C220.769 186.466 216.806 190.429 211.897 190.429C206.987 190.429 203.025 186.466 203.025 181.557C203.025 176.648 206.987 172.685 211.897 172.685Z" stroke="#313131" stroke-width="0.25" stroke-linecap="round" stroke-linejoin="round"/>
    <path d="M170.595 231.816C175.493 231.7 179.371 227.636 179.255 222.737C179.14 217.839 175.075 213.961 170.177 214.077C165.278 214.192 161.401 218.257 161.516 223.155C161.632 228.054 165.696 231.931 170.595 231.816Z" stroke="#313131" stroke-width="0.25" stroke-linecap="round" stroke-linejoin="round"/>
    <path d="M147.486 275.038C149.941 270.795 155.352 269.346 159.596 271.8C163.84 274.255 165.289 279.667 162.849 283.91C160.395 288.154 154.983 289.603 150.739 287.149C146.495 284.694 145.046 279.282 147.501 275.038H147.486Z" stroke="#313131" stroke-width="0.25" stroke-linecap="round" stroke-linejoin="round"/>
    <path d="M170.228 344.95C175.128 344.95 179.1 340.978 179.1 336.078C179.1 331.178 175.128 327.206 170.228 327.206C165.328 327.206 161.356 331.178 161.356 336.078C161.356 340.978 165.328 344.95 170.228 344.95Z" stroke="#313131" stroke-width="0.25" stroke-linecap="round" stroke-linejoin="round"/>
    <path d="M203.912 382.005C201.457 377.761 202.921 372.335 207.165 369.895C211.409 367.44 216.835 368.904 219.275 373.148C221.73 377.392 220.266 382.818 216.037 385.258C211.793 387.713 206.366 386.249 203.927 382.02L203.912 382.005Z" stroke="#313131" stroke-width="0.25" stroke-linecap="round" stroke-linejoin="round"/>
    <path d="M274.619 398.928C277.979 395.362 277.812 389.747 274.246 386.386C270.68 383.026 265.065 383.192 261.705 386.758C258.345 390.324 258.511 395.939 262.077 399.3C265.643 402.66 271.258 402.494 274.619 398.928Z" stroke="#313131" stroke-width="0.25" stroke-linecap="round" stroke-linejoin="round"/>
    <path d="M324.763 386.619C329.663 386.619 333.635 382.647 333.635 377.747C333.635 372.847 329.663 368.875 324.763 368.875C319.863 368.875 315.891 372.847 315.891 377.747C315.891 382.647 319.863 386.619 324.763 386.619Z" stroke="#313131" stroke-width="0.25" stroke-linecap="round" stroke-linejoin="round"/>
    <path d="M371.727 343.34C375.582 340.316 376.256 334.739 373.232 330.884C370.208 327.029 364.631 326.355 360.776 329.379C356.92 332.403 356.246 337.98 359.27 341.835C362.295 345.69 367.871 346.364 371.727 343.34Z" stroke="#313131" stroke-width="0.25" stroke-linecap="round" stroke-linejoin="round"/>
    <path d="M390.344 279.948C390.419 275.048 386.507 271.016 381.608 270.942C376.709 270.868 372.677 274.779 372.602 279.678C372.528 284.578 376.439 288.61 381.339 288.684C386.238 288.758 390.27 284.847 390.344 279.948Z" stroke="#313131" stroke-width="0.25" stroke-linecap="round" stroke-linejoin="round"/>
  </g>
  <defs>
    <filter id="filter0_d_36_922" x="92.3345" y="102.127" width="353.121" height="356.056" filterUnits="userSpaceOnUse" color-interpolation-filters="sRGB">
      <feFlood flood-opacity="0" result="BackgroundImageFix"/>
      <feColorMatrix in="SourceAlpha" type="matrix" values="0 0 0 0 0 0 0 0 0 0 0 0 0 0 0 0 0 0 127 0" result="hardAlpha"/>
      <feOffset/>
      <feGaussianBlur stdDeviation="3"/>
      <feColorMatrix type="matrix" values="0 0 0 0 0.976471 0 0 0 0 0.690196 0 0 0 0 1 0 0 0 0.84 0"/>
      <feBlend mode="normal" in2="BackgroundImageFix" result="effect1_dropShadow_36_922"/>
      <feBlend mode="normal" in="SourceGraphic" in2="effect1_dropShadow_36_922" result="shape"/>
    </filter>
    <radialGradient id="paint0_radial_36_922" cx="0" cy="0" r="1" gradientUnits="userSpaceOnUse" gradientTransform="translate(268.5 279.667) scale(413.42 413.42)">
      <stop stop-color="#616161" stop-opacity="0.98"/>
      <stop offset="0.09" stop-color="#BE47D3" stop-opacity="0.78"/>
      <stop offset="0.17" stop-color="#9636AE" stop-opacity="0.59"/>
      <stop offset="0.26" stop-color="#74278F" stop-opacity="0.43"/>
      <stop offset="0.35" stop-color="#571B74" stop-opacity="0.3"/>
      <stop offset="0.45" stop-color="#3F115E" stop-opacity="0.19"/>
      <stop offset="0.55" stop-color="#2D094D" stop-opacity="0.11"/>
      <stop offset="0.67" stop-color="#200442" stop-opacity="0.05"/>
      <stop offset="0.8" stop-color="#19003B" stop-opacity="0.01"/>
      <stop offset="1" stop-color="#170039" stop-opacity="0"/>
    </radialGradient>
    <clipPath id="clip0_36_922">
      <rect width="767.67" height="559.18" fill="white" transform="translate(-134)"/>
    </clipPath>
  </defs>
</svg>